<?xml version="1.0" standalone="no"?>
<!DOCTYPE svg PUBLIC "-//W3C//DTD SVG 20010904//EN"
 "http://www.w3.org/TR/2001/REC-SVG-20010904/DTD/svg10.dtd">
<svg version="1.0" xmlns="http://www.w3.org/2000/svg"
 width="512.000000pt" height="512.000000pt" viewBox="0 0 512.000000 512.000000"
 preserveAspectRatio="xMidYMid meet">
<metadata>
Created by potrace 1.11, written by Peter Selinger 2001-2013
</metadata>
<g transform="translate(0.000000,512.000000) scale(0.100000,-0.100000)"
fill="#000000" stroke="none">
<path d="M2611 4050 c-23 -17 -221 -208 -440 -424 l-399 -395 -294 -3 c-292
-3 -293 -3 -348 -29 -57 -26 -101 -72 -135 -138 -15 -30 -18 -82 -23 -466 -5
-471 -3 -500 48 -577 16 -24 52 -59 81 -78 l52 -35 301 -3 302 -3 436 -423
c332 -324 443 -426 468 -431 50 -11 93 2 131 41 l34 35 3 1431 2 1432 -25 38
c-45 67 -124 78 -194 28z"/>
<path d="M3615 3401 c-57 -35 -78 -67 -83 -124 -5 -65 8 -94 81 -175 56 -64
130 -191 165 -285 86 -230 61 -496 -69 -722 -24 -42 -58 -93 -75 -113 -88
-104 -104 -132 -104 -180 0 -89 51 -150 133 -159 69 -8 94 3 165 70 75 71 128
150 200 292 85 170 122 329 122 526 0 230 -57 431 -182 638 -54 89 -164 213
-209 237 -39 20 -108 18 -144 -5z"/>
<path d="M3252 3039 c-94 -47 -118 -156 -53 -242 67 -89 81 -114 97 -177 29
-115 1 -240 -75 -331 -23 -26 -45 -59 -51 -74 -27 -72 7 -156 80 -192 93 -47
158 -23 243 91 68 92 89 136 117 246 53 207 1 441 -132 602 -51 61 -110 97
-158 98 -14 0 -44 -10 -68 -21z"/>
</g>
</svg>
